<?xml version="1.0" encoding="utf-8"?>
<!-- Generator: Adobe Illustrator 20.1.0, SVG Export Plug-In . SVG Version: 6.00 Build 0)  -->
<svg version="1.1" id="Layer_1" xmlns="http://www.w3.org/2000/svg" xmlns:xlink="http://www.w3.org/1999/xlink" x="0px" y="0px"
	 viewBox="0 0 144 43.4" style="enable-background:new 0 0 144 43.4;" xml:space="preserve">
<style type="text/css">
	.st0{fill:#1B1B1B;}
</style>
<path class="st0" d="M46.7,29c0.1-0.3,0.3-0.5,0.7-0.4l2.5,0.8c2.7,0.8,4,3,3.1,5.8c-0.9,2.8-3.1,3.9-5.9,3l-2.5-0.8
	c-0.3-0.1-0.5-0.3-0.3-0.7L46.7,29z M47.4,36.8c1.8,0.6,3.2-0.1,3.9-2.1c0.6-2-0.2-3.4-2-3.9L48,30.3l-1.9,6L47.4,36.8z M57.3,32
	c0.1-0.3,0.3-0.5,0.6-0.4l4.4,0.8c0.3,0.1,0.5,0.3,0.4,0.6l-0.1,0.4c-0.1,0.3-0.3,0.5-0.6,0.4l-3.3-0.6l-0.4,2.4l2.5,0.4
	c0.3,0.1,0.5,0.3,0.4,0.6l-0.1,0.4c-0.1,0.4-0.3,0.5-0.6,0.4L58.2,37l-0.4,2.4l3.5,0.6c0.3,0.1,0.5,0.3,0.4,0.6L61.6,41
	c-0.1,0.4-0.3,0.5-0.6,0.4l-4.6-0.8c-0.3-0.1-0.5-0.3-0.4-0.6L57.3,32z M65.2,40.4l0.3-0.4c0.2-0.3,0.4-0.3,0.8-0.1
	c0.3,0.2,0.9,0.7,1.8,0.8c0.9,0,1.4-0.4,1.4-1c0.1-1.7-4.2-1.6-4-4.5c0.1-1.6,1.5-2.6,3.2-2.5c1.1,0.1,2,0.5,2.3,0.8
	c0.3,0.2,0.3,0.5,0.1,0.7l-0.3,0.4c-0.2,0.4-0.5,0.3-0.7,0.1c-0.4-0.2-0.8-0.6-1.6-0.6c-0.9,0-1.4,0.3-1.5,1c-0.1,1.7,4.2,1.5,4,4.4
	c-0.1,1.5-1.3,2.7-3.2,2.5c-1.3-0.1-2.3-0.7-2.8-1.1C65,40.9,64.9,40.7,65.2,40.4z M74.8,33.5c0-0.3,0.2-0.6,0.5-0.6l0.6,0
	c0.4,0,0.5,0.2,0.6,0.5l0.4,8.1c0,0.4-0.2,0.5-0.5,0.6l-0.6,0c-0.3,0-0.5-0.2-0.6-0.5L74.8,33.5z M84.2,31.9
	c1.5-0.2,2.7,0.2,3.1,0.4c0.3,0.2,0.4,0.4,0.2,0.7l-0.2,0.4c-0.1,0.3-0.4,0.4-0.7,0.3c-0.4-0.2-1.1-0.4-2.1-0.2
	c-2,0.3-2.9,1.9-2.6,3.6c0.3,1.9,1.9,3,3.5,2.7c1.5-0.2,2.1-1.4,2.1-1.4l-0.2-1l-0.9,0.1c-0.3,0.1-0.6-0.1-0.6-0.5l-0.1-0.3
	c-0.1-0.4,0.1-0.6,0.5-0.6l1.8-0.3c0.3-0.1,0.6,0.1,0.6,0.5l0.6,3.7c0.1,0.4-0.1,0.6-0.4,0.6l-0.3,0.1c-0.3,0.1-0.6-0.1-0.6-0.4
	l0-0.2c0-0.1,0-0.2,0-0.2l0,0c0,0-0.7,1.2-2.5,1.5c-2.4,0.4-4.8-1.2-5.2-3.9C79.8,34.6,81.5,32.3,84.2,31.9z M91.3,31.2
	c-0.1-0.3,0-0.6,0.3-0.7l0.7-0.2c0.3-0.1,0.5-0.1,0.7,0.2l4.6,3.8c0.5,0.4,1.2,1.1,1.2,1.1l0,0c0,0-0.3-0.8-0.5-1.3l-1.4-4.6
	c-0.1-0.3,0-0.6,0.4-0.7l0.6-0.2c0.3-0.1,0.6,0,0.7,0.4l2.4,7.7c0.1,0.3,0,0.6-0.4,0.7l-0.7,0.2c-0.3,0.1-0.5,0-0.7-0.2l-4.6-3.7
	c-0.5-0.4-1.2-1.1-1.2-1.1l0,0c0,0,0.4,0.8,0.5,1.3l1.4,4.5c0.1,0.3,0,0.6-0.3,0.7l-0.6,0.2c-0.3,0.1-0.6,0-0.7-0.4L91.3,31.2z
	 M6.7,7.5L2.5,8c-0.6,0.1-1-0.2-1-0.8L1.4,6.5c-0.1-0.6,0.2-1,0.8-1l11.2-1.2c0.6-0.1,0.9,0.2,1,0.8l0.1,0.6c0.1,0.6-0.2,0.9-0.8,1
	L9.5,7.2l1.3,12.2c0.1,0.6-0.2,1-0.8,1l-1,0.1c-0.6,0.1-0.9-0.2-1-0.8L6.7,7.5z M17.7,4.9c0-0.6,0.2-0.9,0.8-1l4.2-0.4
	c1.5-0.1,2.3-0.1,3,0.2c1.6,0.5,2.8,1.9,3,4.1c0.2,1.9-0.7,3.7-2.2,4.5l0,0c0,0,0.2,0.2,0.6,0.8l3,4.5c0.4,0.6,0.2,1.1-0.5,1.2
	l-1.2,0.1c-0.5,0-0.9-0.1-1.1-0.5l-3.2-5l-2.7,0.2l0.4,4.9c0.1,0.6-0.2,0.9-0.8,1l-1,0.1c-0.6,0.1-0.9-0.2-1-0.8L17.7,4.9z
	 M23.6,10.9c1.5-0.1,2.4-1.2,2.3-2.7c-0.1-1-0.5-1.8-1.4-2C24.1,6,23.6,6,22.8,6l-2.1,0.2l0.4,4.9L23.6,10.9z M32.8,3.7
	c0-0.6,0.3-0.9,0.8-1l7.5-0.5c0.6,0,0.9,0.3,1,0.9l0,0.6c0,0.6-0.3,0.9-0.9,1l-5.6,0.3L36,9.2l4.4-0.3c0.6,0,0.9,0.3,1,0.8l0,0.6
	c0,0.6-0.3,0.9-0.9,1l-4.4,0.3l0.3,4.2l6-0.4c0.6,0,0.9,0.3,1,0.8l0,0.6c0,0.6-0.3,0.9-0.9,1l-7.9,0.5c-0.6,0-0.9-0.3-1-0.9
	L32.8,3.7z M45,3.1c-0.2-0.6,0-1.1,0.7-1.1l1.2,0c0.5,0,0.9,0.2,1.1,0.7l3.6,9.3c0.3,0.9,0.7,2.3,0.7,2.3l0,0c0,0,0.2-1.4,0.5-2.3
	l2.9-9.6c0.1-0.5,0.5-0.8,1-0.8l1.1,0c0.7,0,1,0.4,0.8,1L54,16.7c-0.2,0.5-0.5,0.8-1,0.8l-1.4,0.1c-0.5,0-0.9-0.2-1.1-0.7L45,3.1z
	 M69,1.1c4.8,0,8.1,3.5,8.2,7.9c0,4.6-3.3,8.3-8,8.3c-4.8,0-8.1-3.5-8.2-8.2C60.9,4.7,64.2,1.2,69,1.1z M69.1,14.8
	c3,0,5.2-2.5,5.1-5.7C74.2,6,72,3.7,69,3.7c-3,0-5.2,2.4-5.1,5.4C63.9,12.4,66.1,14.8,69.1,14.8z M81.3,2.4c0-0.6,0.3-0.9,0.9-0.9
	l4.2,0.1c1.5,0,2.3,0.2,3,0.5c1.6,0.7,2.6,2.2,2.5,4.4c-0.1,1.9-1.1,3.6-2.7,4.2l0,0c0,0,0.2,0.2,0.5,0.8l2.5,4.8
	c0.4,0.7,0.1,1.1-0.7,1.1l-1.2,0c-0.5,0-0.8-0.2-1.1-0.7l-2.6-5.3l-2.7-0.1l-0.1,4.9c0,0.6-0.3,0.9-0.9,0.9l-1,0
	c-0.6,0-0.9-0.3-0.9-1L81.3,2.4z M86.6,8.9c1.5,0,2.5-0.9,2.5-2.4c0-1-0.3-1.8-1.2-2.2c-0.4-0.2-0.9-0.3-1.7-0.3L84.1,4L84,8.9
	L86.6,8.9z M103.3,3.2c0-0.6,0.4-0.9,1-0.9l4.2,0.3c1.5,0.1,2.3,0.3,3,0.6c1.5,0.8,2.5,2.3,2.4,4.4c-0.1,1.9-1.2,3.6-2.9,4.1l0,0
	c0,0,0.2,0.3,0.5,0.8l2.3,4.9c0.3,0.7,0,1.1-0.7,1.1l-1.2-0.1c-0.5,0-0.8-0.3-1-0.7l-2.4-5.4l-2.7-0.2l-0.3,4.9c0,0.6-0.4,0.9-1,0.9
	l-1-0.1c-0.6,0-0.9-0.4-0.8-1L103.3,3.2z M108.2,9.9c1.5,0.1,2.5-0.8,2.6-2.3c0.1-1-0.3-1.8-1.1-2.2c-0.4-0.2-0.8-0.3-1.7-0.4
	L106,4.9l-0.3,4.9L108.2,9.9z M121.9,4.3c0.2-0.5,0.6-0.7,1.1-0.7l1.4,0.1c0.5,0,0.9,0.3,1,0.8l3.7,14.2c0.2,0.7-0.2,1.1-0.8,1
	l-1-0.1c-0.5,0-0.9-0.3-1-0.8l-0.8-3.4l-5.5-0.5l-1.4,3.1c-0.2,0.5-0.6,0.7-1.1,0.7l-1-0.1c-0.7-0.1-0.9-0.5-0.7-1.1L121.9,4.3z
	 M124.9,13.2l-1-4.3c-0.2-0.9-0.4-2.5-0.4-2.5l0,0c0,0-0.5,1.5-0.8,2.4l-1.8,4.1L124.9,13.2z M135,13.9l-3.8-8.4
	c-0.3-0.7,0-1.1,0.7-1l1.2,0.1c0.5,0.1,0.8,0.3,1,0.8l1.7,4.1c0.4,1,0.7,2.2,0.7,2.2l0,0c0,0,0.6-1.1,1.2-2l2.5-3.7
	c0.3-0.4,0.6-0.6,1.1-0.6l1.2,0.1c0.7,0.1,0.9,0.6,0.5,1.2l-5.4,7.5l-0.6,5.6c-0.1,0.6-0.4,0.9-1,0.8l-1-0.1c-0.6-0.1-0.9-0.4-0.8-1
	L135,13.9z"/>
</svg>
