<?xml version="1.0" encoding="utf-8"?>
<!-- Generator: Adobe Illustrator 20.1.0, SVG Export Plug-In . SVG Version: 6.00 Build 0)  -->
<svg version="1.1" id="Layer_1" xmlns="http://www.w3.org/2000/svg" xmlns:xlink="http://www.w3.org/1999/xlink" x="0px" y="0px"
	 viewBox="0 0 65 110" style="enable-background:new 0 0 65 110;" xml:space="preserve">
<style type="text/css">
	.st0{fill:#272826;}
</style>
<g>
	<path class="st0" d="M38.3,72.1c-5.7,0-10.3-4.6-10.3-10.3V14.3c0-7.4-6-13.5-13.5-13.5S1,6.9,1,14.3v47.5c0,7.4,6,13.5,13.5,13.5
		c5.7,0,10.3,4.6,10.3,10.3c0,7.4,6,13.5,13.5,13.5s13.5-6,13.5-13.5C51.8,78.2,45.7,72.1,38.3,72.1z"/>
	<path class="st0" d="M50.2,24.6c-7.4,0-13.5,6-13.5,13.5s6,13.5,13.5,13.5c7.4,0,13.4-6,13.4-13.5S57.6,24.6,50.2,24.6z"/>
</g>
</svg>
