<?xml version="1.0" encoding="utf-8"?>
<!-- Generator: Adobe Illustrator 20.1.0, SVG Export Plug-In . SVG Version: 6.00 Build 0)  -->
<svg version="1.1" id="Layer_1" xmlns="http://www.w3.org/2000/svg" xmlns:xlink="http://www.w3.org/1999/xlink" x="0px" y="0px"
	 viewBox="0 0 144 82" style="enable-background:new 0 0 144 82;" xml:space="preserve">
<style type="text/css">
	.st0{fill:#D6D6D6;}
	.st1{fill:#333132;}
</style>
<g>
	<path class="st0" d="M90.1,51L90.1,51l0.2,0.1l2.7-0.7c7.1-1.8,11.6-7.5,11.6-14.4c0.1-4.5-1.8-8.8-5.1-11.7l-0.4,0.4
		c2.4,2.7,3.8,6.3,3.8,10.1c0,6.7-4.4,12.1-11.2,13.9l-2.9,0.7l-0.5,0.1l0.4,0.3L90.1,51z M104.4,34.4c0.1,0.5,0.1,1,0.1,1.6
		C104.5,35.5,104.5,35,104.4,34.4z"/>
	<path class="st0" d="M74.6,29.8h-0.2v0.3v0.1V41c0,1.1,0.6,2,1.6,2.5l0.6,0.3l-0.3-0.6c-0.1-0.3-0.2-0.6-0.2-0.9V31.4
		C76.1,30.6,75.5,29.9,74.6,29.8z"/>
	<path class="st0" d="M64,44.4l-0.3,0.1v0.3v0.1v4c0,0.6-0.5,1.1-1.1,1.1H50.4c-1.5,0-2.7,1.2-2.7,2.7v11.8c0,1.1-0.9,2-2,2H42
		c-0.2,0-0.5-0.1-0.7-0.2l-0.5-0.2l0.2,0.5c0.4,0.9,1.2,1.5,2.2,1.5v0c0,0,0.1,0,0.1,0H47c1.4,0,2.5-1.1,2.5-2.5V53.9
		c0-1.2,1-2.2,2.2-2.2h12.2c0.9,0,1.6-0.7,1.6-1.6V46C65.5,45.2,64.9,44.5,64,44.4z M63.8,48.9l0.1-4.2v0.1v0v4.1
		c0,0.6-0.3,1-0.8,1.1C63.5,49.8,63.8,49.4,63.8,48.9z M47.8,64.5V52.7c0-1.1,0.7-2,1.6-2.3c-0.9,0.4-1.5,1.3-1.5,2.3v11.8
		c0,0.9-0.5,1.7-1.3,2C47.3,66.1,47.8,65.4,47.8,64.5z"/>
	<path class="st0" d="M116,66c-0.2-0.3-0.5-0.5-0.9-0.7l-0.3-0.1l0,0.1l-0.5-0.3l0.2,0.6c0.2,0.5,0.2,1.1,0.2,1.9
		c-0.2,1.8-0.5,3.1-3.6,3.1c-0.4,0-0.8,0-1.3-0.1c-2.4-0.2-4.5-0.7-6.4-1.4c-4.3-1.6-7.5-4.2-11.3-7.5L80.6,51.3
		c-0.3-0.3-0.6-0.4-0.9-0.6C79,50.2,78.1,50,77.3,50c-0.7,0-1.4,0.3-1.9,0.8s-0.8,1.2-0.8,2v24.9c0,1.1-0.9,2-2,2h-3.8
		c-0.3,0-0.5,0-0.7-0.1l-0.4-0.1l0.1,0.4c0.2,1.1,0.9,1.5,2.2,1.5v0h0.1h3.7h0.1c1.4,0,2.5-1.1,2.5-2.5V54c0-1,0.3-2.1,1.7-2.1
		c0.9,0,2.1,1.1,2.9,1.7l0.1,0.1l11.1,10.2c6.1,5.3,11.3,7.7,18.8,8.3c0.5,0,0.9,0.1,1.3,0.1c2.3,0,3.3-0.7,3.7-1.7
		c0.3-0.5,0.4-1.2,0.5-1.9C116.6,67.4,116.5,66.6,116,66z M115,67.5c0.1-0.9,0-1.5-0.2-2c0,0,0.1,0,0.1,0.1c0.2,0.5,0.3,1.2,0.2,1.9
		c-0.1,1.2-0.3,2.2-1.3,2.7C114.7,69.7,114.9,68.7,115,67.5z M74.8,77.7c0,0.6-0.2,1.1-0.6,1.5C74.6,78.8,74.8,78.3,74.8,77.7z
		 M87.4,59.2l5.1,4.5c2.2,2,4.3,3.5,6.5,4.7c-2.3-1.3-4.5-2.9-6.7-4.8L87.4,59.2z M99.8,68.9c-0.2-0.1-0.4-0.2-0.6-0.3
		C99.4,68.7,99.6,68.8,99.8,68.9z"/>
	<path class="st0" d="M93.4,29.6l1.8,1.4l-1.4-1.8c-1.2-1.5-3.5-3.3-7.5-3.3H50.4c-1.5,0-2.8,1.2-2.8,2.7V41c0,1.1,0.6,2,1.6,2.5
		l0.6,0.3l-0.3-0.6c-0.1-0.3-0.2-0.6-0.2-0.9V29.9c0-1.2,1-2.2,2.3-2.2h35.9C89.9,27.7,91.8,28.3,93.4,29.6z M48.6,26.9
		c-0.5,0.5-0.8,1.1-0.8,1.8C47.8,28,48.1,27.4,48.6,26.9z"/>
	<path class="st0" d="M66.2,9.3l0.6,0.3L66.6,9c-0.5-1-1.4-1.6-2.5-1.6H28.7c-0.2,0-0.5-0.1-0.7-0.2L27.4,7l0.2,0.6
		c0.4,0.9,1.3,1.5,2.3,1.5h35.4C65.6,9.1,65.9,9.2,66.2,9.3z M65.4,9C65.4,9,65.4,9,65.4,9c0,0-0.1,0-0.1,0H65.4z"/>
	<path class="st0" d="M69.2,18.3h5.4c0.9,0,1.6-0.7,1.6-1.6v-5.2c0-1.2,1-2.2,2.3-2.2H114c1.6,0,2.3-0.7,2.3-2.5V3
		c0-1.4-0.5-2.2-1.5-2.4h-0.3l0.1,0.4c0.1,0.3,0.1,0.6,0.1,0.9v3.6c0,1.5-0.5,2-1.8,2H77.3c-1.5,0-2.8,1.2-2.8,2.7v5.2
		c0,0.6-0.5,1.1-1.1,1.1H68c0,0,0,0-0.1,0h-0.3v0.3C67.7,17.6,68.3,18.3,69.2,18.3z M77.3,7.6h35.5c0.5,0,0.9-0.1,1.2-0.2
		c-0.3,0.2-0.8,0.3-1.3,0.3H77.2c-0.7,0-1.3,0.3-1.7,0.7C75.9,7.9,76.6,7.6,77.3,7.6z M68.1,16.6h5.4c0.3,0,0.6-0.1,0.8-0.3
		c-0.2,0.3-0.5,0.4-0.9,0.4H68C68,16.7,68,16.6,68.1,16.6L68.1,16.6z"/>
</g>
<g>
	<g>
		<path class="st1" d="M46.4,48.9c0.1-0.3,0.3-0.5,0.7-0.4l2.5,0.8c2.7,0.8,4,3,3.1,5.8s-3.1,3.8-5.8,3l-2.5-0.8
			c-0.3-0.1-0.5-0.3-0.3-0.7L46.4,48.9z M47.1,56.7c1.8,0.6,3.2-0.1,3.9-2.1c0.6-2-0.2-3.4-2-3.9l-1.3-0.4l-1.9,6L47.1,56.7z"/>
		<path class="st1" d="M56.9,51.8c0.1-0.3,0.3-0.5,0.6-0.4l4.4,0.8c0.3,0.1,0.5,0.3,0.4,0.6l-0.1,0.4c-0.1,0.3-0.3,0.5-0.6,0.4
			L58.4,53L58,55.4l2.5,0.4c0.3,0.1,0.5,0.3,0.4,0.6l-0.1,0.4c-0.1,0.4-0.3,0.5-0.6,0.4l-2.5-0.4l-0.4,2.4l3.5,0.6
			c0.3,0.1,0.5,0.3,0.4,0.6l-0.1,0.4c-0.1,0.4-0.3,0.5-0.6,0.4L56,60.4c-0.3-0.1-0.5-0.3-0.4-0.6L56.9,51.8z"/>
		<path class="st1" d="M64.9,60.2l0.3-0.4c0.2-0.3,0.4-0.3,0.8-0.1c0.3,0.2,0.9,0.7,1.8,0.8c0.9,0,1.4-0.4,1.4-1
			c0.1-1.7-4.2-1.6-4-4.5c0.1-1.6,1.5-2.6,3.2-2.5c1.1,0.1,2,0.5,2.3,0.8c0.3,0.2,0.3,0.5,0.1,0.7l-0.3,0.4
			c-0.2,0.4-0.5,0.3-0.7,0.1c-0.4-0.2-0.9-0.6-1.6-0.6c-0.9,0-1.4,0.3-1.5,1c-0.1,1.7,4.2,1.5,4,4.4c-0.1,1.5-1.3,2.7-3.2,2.5
			c-1.3-0.1-2.3-0.7-2.8-1.1C64.7,60.8,64.6,60.6,64.9,60.2z"/>
		<path class="st1" d="M74.4,53.3c0-0.3,0.2-0.6,0.5-0.6h0.6c0.3,0,0.5,0.2,0.6,0.5l0.4,8.1c0,0.4-0.2,0.6-0.5,0.6h-0.6
			c-0.3,0-0.5-0.2-0.6-0.5L74.4,53.3z"/>
		<path class="st1" d="M83.8,51.7c1.5-0.2,2.7,0.2,3.1,0.4c0.3,0.2,0.4,0.4,0.2,0.7L87,53.2c-0.1,0.3-0.4,0.4-0.7,0.3
			c-0.4-0.2-1.1-0.4-2.1-0.2c-2,0.3-2.9,1.9-2.6,3.6c0.3,1.9,1.9,3,3.5,2.7c1.5-0.2,2.1-1.4,2.1-1.4l-0.2-1l-0.9,0.1
			c-0.3,0.1-0.6-0.1-0.6-0.5l-0.1-0.3c-0.1-0.4,0.1-0.6,0.5-0.6l1.8-0.3c0.3-0.1,0.6,0.1,0.6,0.5l0.6,3.7c0.1,0.4-0.1,0.6-0.4,0.6
			l-0.3,0.1c-0.3,0.1-0.6-0.1-0.6-0.4v-0.2c0-0.1,0-0.2,0-0.2l0,0c0,0-0.7,1.2-2.5,1.4c-2.4,0.4-4.8-1.2-5.2-3.9
			C79.5,54.5,81.1,52.1,83.8,51.7z"/>
		<path class="st1" d="M90.9,51c-0.1-0.3,0-0.6,0.3-0.7l0.7-0.2c0.3-0.1,0.5-0.1,0.7,0.2l4.6,3.7c0.5,0.4,1.2,1.1,1.2,1.1l0,0
			c0,0-0.4-0.8-0.5-1.3l-1.4-4.5c-0.1-0.3,0-0.6,0.4-0.7l0.6-0.2c0.3-0.1,0.6,0,0.7,0.4l2.4,7.7c0.1,0.3,0,0.6-0.4,0.7l-0.7,0.2
			c-0.3,0.1-0.5,0-0.7-0.2l-4.6-3.7c-0.5-0.4-1.2-1.1-1.2-1.1l0,0c0,0,0.4,0.8,0.5,1.3l1.4,4.5c0.1,0.3,0,0.6-0.3,0.7L94,59.1
			c-0.3,0.1-0.6,0-0.7-0.4L90.9,51z"/>
	</g>
	<g>
		<path class="st1" d="M6.3,28.3l-4.2,0.4c-0.6,0.1-1-0.2-1-0.8L1,27.3c-0.1-0.6,0.2-1,0.8-1L13,25.2c0.6-0.1,0.9,0.2,1,0.8l0.1,0.6
			c0.1,0.6-0.2,0.9-0.8,1L9.1,28l1.3,12.2c0.1,0.6-0.2,1-0.8,1l-1,0.1c-0.6,0.1-0.9-0.2-1-0.8L6.3,28.3z"/>
		<path class="st1" d="M17.3,25.7c0-0.6,0.2-0.9,0.8-1l4.2-0.3c1.5-0.1,2.3-0.1,3,0.2c1.6,0.5,2.8,1.9,3,4.1
			c0.2,1.8-0.7,3.7-2.2,4.5l0,0c0,0,0.2,0.2,0.6,0.8l3,4.5c0.4,0.6,0.2,1.1-0.5,1.2L28,39.8c-0.5,0-0.9-0.1-1.1-0.6l-3.2-5L21,34.4
			l0.4,4.9c0.1,0.6-0.2,0.9-0.8,1l-1,0.1c-0.6,0-0.9-0.2-1-0.9L17.3,25.7z M23.2,31.7c1.5-0.1,2.4-1.1,2.3-2.7c-0.1-1-0.5-1.8-1.4-2
			c-0.4-0.1-0.9-0.2-1.7-0.1L20.2,27l0.4,4.9L23.2,31.7z"/>
		<path class="st1" d="M32.4,24.5c0-0.6,0.3-0.9,0.8-1l7.5-0.5c0.6,0,0.9,0.3,1,0.9v0.6c0,0.6-0.3,0.9-0.9,1l-5.6,0.3l0.3,4.1
			l4.4-0.3c0.6,0,0.9,0.3,1,0.8V31c0,0.6-0.3,0.9-0.9,1l-4.4,0.3l0.3,4.2l6-0.4c0.6,0,0.9,0.3,1,0.8v0.6c0,0.6-0.3,0.9-0.9,1
			L34.1,39c-0.6,0-0.9-0.3-1-0.9L32.4,24.5z"/>
		<path class="st1" d="M44.5,23.9c-0.2-0.6,0-1.1,0.7-1.1h1.2c0.5,0,0.9,0.2,1.1,0.7l3.6,9.3c0.3,0.9,0.7,2.3,0.7,2.3l0,0
			c0,0,0.2-1.4,0.5-2.3l2.9-9.6c0.1-0.5,0.5-0.8,1-0.8h1.1c0.7,0,1,0.4,0.8,1l-4.5,14.1c-0.2,0.5-0.5,0.7-1,0.8l-1.4,0.1
			c-0.5,0-0.9-0.2-1.1-0.7L44.5,23.9z"/>
		<path class="st1" d="M68.6,21.9c4.7,0,8.1,3.5,8.2,7.9c0,4.6-3.3,8.2-8,8.3c-4.7,0-8.1-3.5-8.2-8.2C60.5,25.5,63.8,22,68.6,21.9z
			 M68.7,35.5c3,0,5.2-2.5,5.1-5.6c0-3-2.2-5.4-5.2-5.4s-5.2,2.4-5.1,5.4C63.5,33.2,65.7,35.6,68.7,35.5z"/>
		<path class="st1" d="M80.9,23.2c0-0.6,0.3-0.9,0.9-0.9l4.2,0.1c1.5,0,2.3,0.2,3,0.5c1.6,0.7,2.6,2.2,2.5,4.4
			c0,1.9-1.1,3.6-2.7,4.2l0,0c0,0,0.2,0.2,0.5,0.8l2.5,4.8c0.4,0.7,0.1,1.1-0.7,1.1h-1.2c-0.5,0-0.8-0.2-1.1-0.7l-2.6-5.3l-2.7-0.1
			L83.4,37c0,0.6-0.3,0.9-0.9,0.9h-1c-0.6,0-0.9-0.3-0.9-1L80.9,23.2z M86.1,29.7c1.5,0,2.5-0.9,2.5-2.4c0-1-0.3-1.8-1.2-2.2
			c-0.4-0.2-0.9-0.3-1.7-0.3l-2.1-0.1l-0.1,4.9L86.1,29.7z"/>
		<path class="st1" d="M102.8,24c0-0.6,0.4-0.9,1-0.9l4.2,0.3c1.5,0.1,2.3,0.3,2.9,0.6c1.5,0.8,2.5,2.3,2.4,4.4
			c-0.1,1.9-1.2,3.6-2.9,4.1l0,0c0,0,0.2,0.3,0.5,0.8l2.3,4.9c0.3,0.7,0,1.1-0.7,1.1l-1.2-0.1c-0.5,0-0.8-0.3-1-0.7l-2.4-5.4
			l-2.7-0.2l-0.3,4.9c0,0.6-0.4,0.9-1,0.9l-1-0.1c-0.6,0-0.9-0.4-0.8-1L102.8,24z M107.8,30.7c1.5,0.1,2.5-0.8,2.6-2.3
			c0.1-1-0.3-1.8-1.1-2.2c-0.4-0.2-0.8-0.3-1.7-0.4l-2.1-0.1l-0.3,4.9L107.8,30.7z"/>
		<path class="st1" d="M121.4,25.1c0.2-0.5,0.6-0.7,1.1-0.7l1.4,0.1c0.5,0,0.9,0.3,1,0.8l3.7,14.2c0.2,0.7-0.2,1.1-0.8,1l-1-0.1
			c-0.5,0-0.9-0.3-1-0.8l-0.8-3.4l-5.5-0.5l-1.4,3.1c-0.2,0.5-0.6,0.7-1.1,0.7l-1-0.1c-0.7-0.1-0.9-0.5-0.7-1.1L121.4,25.1z
			 M124.4,34l-1-4.3c-0.2-0.9-0.4-2.5-0.4-2.5l0,0c0,0-0.5,1.5-0.8,2.4l-1.8,4.1L124.4,34z"/>
		<path class="st1" d="M134.6,34.7l-3.8-8.4c-0.3-0.7,0-1.1,0.7-1l1.2,0.1c0.5,0.1,0.8,0.3,1,0.8l1.7,4.1c0.4,1,0.7,2.2,0.7,2.2l0,0
			c0,0,0.6-1.1,1.2-2l2.5-3.7c0.3-0.4,0.6-0.6,1.1-0.6l1.2,0.1c0.7,0.1,0.9,0.6,0.5,1.2l-5.4,7.5l-0.6,5.6c-0.1,0.6-0.4,0.9-1,0.8
			l-1-0.1c-0.6-0.1-0.9-0.4-0.8-1L134.6,34.7z"/>
	</g>
</g>
</svg>
