<?xml version="1.0" encoding="utf-8"?>
<!-- Generator: Adobe Illustrator 20.1.0, SVG Export Plug-In . SVG Version: 6.00 Build 0)  -->
<svg version="1.1" id="Layer_1" xmlns="http://www.w3.org/2000/svg" xmlns:xlink="http://www.w3.org/1999/xlink" x="0px" y="0px"
	 viewBox="0 0 227 110" style="enable-background:new 0 0 227 110;" xml:space="preserve">
<style type="text/css">
	.st0{enable-background:new    ;}
	.st1{fill:#272826;}
</style>
<g class="st0">
	<path class="st1" d="M12.4,19.7H1.7c-0.8,0-1.2-0.4-1.2-1.2v-0.6c0-0.8,0.4-1.2,1.2-1.2h24.9c0.8,0,1.2,0.4,1.2,1.2v0.6
		c0,0.8-0.4,1.2-1.2,1.2H15.7V49c0,0.8-0.4,1.2-1.1,1.2h-0.9c-0.8,0-1.2-0.4-1.2-1.2V19.7z"/>
</g>
<g class="st0">
	<path class="st1" d="M32.2,27.4c0-0.8,0.4-1.2,1.2-1.2h0.9c0.7,0,1.1,0.4,1.1,1.2v3.2c0,1-0.2,1.9-0.2,1.9h0.1
		c1.1-3.5,3.9-6.5,7.7-6.5c0.9,0,1.2,0.4,1.2,1.1v0.9c0,0.8-0.5,1.2-1.3,1.2c-5,0-7.5,5.7-7.5,10.7V49c0,0.8-0.4,1.2-1.1,1.2h-0.9
		c-0.8,0-1.2-0.4-1.2-1.2V27.4z"/>
</g>
<g class="st0">
	<path class="st1" d="M58.2,25.7c6.4,0,10,4.6,10,11.4c0,0.7-0.5,1.2-1.2,1.2H49.8c0.1,6.1,4.3,9.5,9.3,9.5c3,0,5.2-1.3,6.3-2.2
		c0.7-0.4,1.2-0.3,1.6,0.3l0.4,0.6c0.3,0.6,0.2,1.1-0.3,1.6c-1.3,1-4.1,2.7-8,2.7c-7.1,0-12.5-5.1-12.5-12.5
		C46.5,30.4,51.8,25.7,58.2,25.7z M64.9,35.8c-0.2-5-3.2-7.5-6.8-7.5c-4,0-7.5,2.7-8.2,7.5H64.9z"/>
	<path class="st1" d="M71.2,27.6c-0.3-0.9,0-1.4,0.9-1.4h1c0.6,0,1.1,0.3,1.3,0.9l6.3,16.6c0.4,1.2,0.8,2.9,0.8,2.9h0.1
		c0,0,0.4-1.7,0.9-2.9l6.3-16.6c0.2-0.7,0.7-0.9,1.3-0.9h1c0.9,0,1.2,0.5,0.9,1.4l-8.3,21.6c-0.2,0.6-0.7,0.9-1.3,0.9h-1.6
		c-0.7,0-1.1-0.3-1.3-0.9L71.2,27.6z"/>
</g>
<g class="st0">
	<path class="st1" d="M106.8,25.7c7,0,12.6,5.3,12.6,12.4c0,7.2-5.7,12.6-12.6,12.6c-7,0-12.6-5.4-12.6-12.6
		C94.2,31,99.8,25.7,106.8,25.7z M106.8,47.8c5.1,0,9.3-4.2,9.3-9.7c0-5.4-4.2-9.5-9.3-9.5c-5.1,0-9.3,4.1-9.3,9.5
		C97.5,43.6,101.7,47.8,106.8,47.8z"/>
</g>
<g class="st0">
	<path class="st1" d="M125.6,27.4c0-0.8,0.4-1.2,1.2-1.2h0.9c0.7,0,1.1,0.4,1.1,1.2v3.2c0,1-0.2,1.9-0.2,1.9h0.1
		c1.1-3.5,3.9-6.5,7.7-6.5c0.9,0,1.2,0.4,1.2,1.1v0.9c0,0.8-0.5,1.2-1.3,1.2c-5,0-7.5,5.7-7.5,10.7V49c0,0.8-0.4,1.2-1.1,1.2h-0.9
		c-0.8,0-1.2-0.4-1.2-1.2V27.4z"/>
</g>
<g class="st0">
	<path class="st1" d="M154.9,17.9c0-0.8,0.4-1.2,1.1-1.2h9c3.1,0,4.7,0.3,6.1,0.9c3,1.4,4.9,4.3,4.9,8.4c0,4.5-2.6,8.2-6.3,9.2v0.1
		c0,0,0.3,0.4,0.9,1.3l6.5,12.1c0.4,0.8,0.1,1.4-0.8,1.4h-1.2c-0.7,0-1.1-0.3-1.4-0.8l-7.1-13.2h-8.4V49c0,0.8-0.4,1.2-1.1,1.2h-1
		c-0.8,0-1.1-0.4-1.1-1.2V17.9z M166.1,33.1c4,0,6.6-2.8,6.6-7c0-2.7-1.3-4.8-3.5-5.8c-1-0.4-1.9-0.6-4.4-0.6h-6.6v13.4H166.1z"/>
</g>
<g class="st0">
	<path class="st1" d="M195.1,35.5h1.4v-0.8c0-4.6-2.5-6.2-5.9-6.2c-2.7,0-4.7,1-5.8,1.7c-0.7,0.3-1.2,0.2-1.6-0.4l-0.3-0.5
		c-0.4-0.6-0.3-1.2,0.3-1.6c1.2-0.8,3.9-2.1,7.6-2.1c5.7,0,8.9,3.2,8.9,9.2V49c0,0.8-0.4,1.2-1.1,1.2h-0.8c-0.8,0-1.2-0.4-1.2-1.2
		v-1.9c0-1.1,0.1-1.8,0.1-1.8h-0.1c0,0-2.1,5.5-8.1,5.5c-4,0-8.1-2.4-8.1-7C180.5,35.9,190.5,35.5,195.1,35.5z M189.1,48
		c4.6,0,7.3-4.7,7.3-8.9v-1.1h-1.3c-3.8,0-11.3,0.1-11.3,5.5C183.8,45.7,185.6,48,189.1,48z"/>
</g>
<g class="st0">
	<path class="st1" d="M205.8,56.6c0.5,0.2,1.2,0.6,2.1,0.6c2.1,0,3.6-1.9,4.5-3.9l1.4-3.4l-9.4-22.3c-0.3-0.8,0-1.4,0.9-1.4h1.1
		c0.7,0,1.1,0.3,1.3,0.9l6.7,16.5c0.4,1.2,0.9,2.5,0.9,2.5h0.1c0,0,0.3-1.3,0.8-2.5l6.6-16.5c0.2-0.7,0.6-0.9,1.3-0.9h1
		c0.9,0,1.2,0.5,1,1.4L214.8,55c-1.2,3.1-3.7,5.1-6.9,5.1c-1.4,0-2.5-0.5-3.3-0.9c-0.6-0.3-0.8-0.9-0.5-1.5l0.3-0.5
		C204.7,56.6,205.2,56.5,205.8,56.6z"/>
</g>
<g class="st0">
	<path class="st1" d="M3.9,66.3c0-0.8,0.4-1.2,1.1-1.2h9.6c10,0,16.8,6.1,16.8,16.7c0,10.6-6.7,16.7-16.8,16.7H5.1
		c-0.8,0-1.1-0.4-1.1-1.2V66.3z M14.4,95.6c8.2,0,13.7-4.8,13.7-13.8c0-8.9-5.5-13.7-13.7-13.7H7.2v27.5H14.4z"/>
	<path class="st1" d="M47.9,74.1c6.4,0,10,4.6,10,11.4c0,0.7-0.5,1.2-1.2,1.2H39.4c0.1,6.1,4.3,9.5,9.3,9.5c3,0,5.2-1.3,6.3-2.2
		c0.7-0.4,1.2-0.3,1.6,0.3l0.4,0.6c0.3,0.6,0.2,1.1-0.3,1.6c-1.3,1-4.1,2.7-8,2.7c-7.1,0-12.5-5.1-12.5-12.5
		C36.1,78.8,41.4,74.1,47.9,74.1z M54.5,84.2c-0.2-5-3.2-7.5-6.8-7.5c-4,0-7.5,2.7-8.2,7.5H54.5z"/>
	<path class="st1" d="M62,94.7l0.4-0.5c0.4-0.6,0.9-0.6,1.6-0.2c1,0.8,3.2,2.2,6.3,2.2c2.7,0,4.8-1.3,4.8-3.8
		c0-5.4-12.8-3.8-12.8-11.6c0-4.4,3.8-6.7,8.1-6.7c3.4,0,5.6,1.2,6.6,1.9c0.6,0.4,0.7,0.9,0.3,1.6l-0.3,0.5c-0.4,0.7-1,0.7-1.6,0.3
		c-0.9-0.6-2.6-1.5-5.1-1.5s-4.7,1.1-4.7,3.7c0,5.5,12.7,3.8,12.7,11.7c0,3.9-3.3,6.7-8.1,6.7c-4.2,0-6.9-1.8-8.1-2.8
		C61.6,95.9,61.6,95.4,62,94.7z"/>
	<path class="st1" d="M83.8,68.1v-1.7c0-0.8,0.4-1.2,1.1-1.2h1.2c0.8,0,1.1,0.4,1.1,1.2v1.7c0,0.8-0.4,1.1-1.1,1.1H85
		C84.2,69.2,83.8,68.8,83.8,68.1z M83.9,75.8c0-0.8,0.4-1.2,1.2-1.2H86c0.8,0,1.1,0.4,1.1,1.2v21.5c0,0.8-0.4,1.2-1.1,1.2h-0.9
		c-0.8,0-1.2-0.4-1.2-1.2V75.8z"/>
	<path class="st1" d="M97.5,104.4c1,0.5,2.9,1.2,5.6,1.2c4.4,0,8.2-2.2,8.2-7.5v-2.5c0-0.9,0.1-1.7,0.1-1.7h-0.1
		c-1.4,2.7-3.8,4.5-7.6,4.5c-6.4,0-10.6-5-10.6-12.4c0-7,3.9-11.9,10.5-11.9c6.2,0,7.8,4.4,7.8,4.4h0.1c0,0-0.1-0.3-0.1-0.8v-1.9
		c0-0.6,0.4-1,1.1-1h0.8c0.8,0,1.2,0.4,1.2,1.2V98c0,7.6-5.7,10.5-11.3,10.5c-2.5,0-4.9-0.5-6.9-1.4c-0.7-0.3-0.9-0.8-0.6-1.5
		l0.3-0.7C96.3,104.3,96.7,104.1,97.5,104.4z M111.3,86.2c0-7.1-3.4-9.3-7.4-9.3c-4.8,0-7.5,3.4-7.5,8.9c0,6,3.1,9.6,7.8,9.6
		C108,95.5,111.3,93.2,111.3,86.2z"/>
</g>
<g class="st0">
	<path class="st1" d="M124.7,75.8c0-0.8,0.4-1.2,1.2-1.2h0.9c0.7,0,1.1,0.4,1.1,1.2v2.8c0,0.9-0.2,1.7-0.2,1.7h0.1
		c0.9-2.2,4-6.2,9.6-6.2c5.9,0,8,3.4,8,9.3v14c0,0.8-0.4,1.2-1.2,1.2h-0.9c-0.8,0-1.1-0.4-1.1-1.2V84.2c0-3.8-0.6-7.1-5.2-7.1
		c-5.1,0-9.1,4.2-9.1,9.7v10.5c0,0.8-0.4,1.2-1.1,1.2h-0.9c-0.8,0-1.2-0.4-1.2-1.2V75.8z"/>
</g>
</svg>
