<?xml version="1.0" encoding="utf-8"?>
<!-- Generator: Adobe Illustrator 20.0.0, SVG Export Plug-In . SVG Version: 6.00 Build 0)  -->
<svg version="1.1" id="Layer_1" xmlns="http://www.w3.org/2000/svg" xmlns:xlink="http://www.w3.org/1999/xlink" x="0px" y="0px"
	 viewBox="0 0 144 144" style="enable-background:new 0 0 144 144;" xml:space="preserve">
<style type="text/css">
	.st0{fill:none;stroke:#000000;stroke-width:8.9333;stroke-miterlimit:10;}
</style>
<g>
	<path d="M72.2,80.9H57.1c-0.1,0-0.2,0.1-0.2,0.2V103c0,0.1-0.1,0.2-0.2,0.2l-12.5,2.1c-0.1,0-0.2,0.1-0.2,0.2v9.5
		c0,0.1,0.1,0.2,0.2,0.2H85c0.1,0,0.2-0.1,0.2-0.2v-9.5c0-0.1-0.1-0.2-0.2-0.2l-12.5-2.1c-0.1,0-0.2-0.1-0.2-0.2V81.1
		C72.4,81,72.3,80.9,72.2,80.9z"/>
	<path d="M97,29c-1.3-0.2-2.5-0.3-3.7-0.3c-4.6,0-8.6,1.2-12.1,3.7c-3.4,2.4-6.3,5.6-8.6,9.7c-0.1,0.2-0.3,0.1-0.4-0.1l-1.4-11.6
		c0-0.1-0.1-0.2-0.2-0.2H44.3c-0.1,0-0.2,0.1-0.2,0.2v9.6c0,0.1,0.1,0.2,0.2,0.2l12.5,2.1c0.1,0,0.2,0.1,0.2,0.2V74
		c0,0.1,0.1,0.2,0.2,0.2h15.1c0.1,0,0.2-0.1,0.2-0.2V54.5c0,0,0-0.1,0-0.1c1.5-3.4,3.7-6.1,6.4-8c2.8-1.9,6.2-2.9,10.3-2.9
		c0,0,0,0,0,0l8.6,0.5c0.1,0,0.2-0.1,0.2-0.2l2-14c0-0.1,0-0.2-0.1-0.2C99.1,29.4,98.2,29.2,97,29z"/>
</g>
<circle class="st0" cx="72" cy="72" r="67"/>
</svg>
