<?xml version="1.0" encoding="utf-8"?>
<!-- Generator: Adobe Illustrator 20.1.0, SVG Export Plug-In . SVG Version: 6.00 Build 0)  -->
<svg version="1.1" id="Layer_1" xmlns="http://www.w3.org/2000/svg" xmlns:xlink="http://www.w3.org/1999/xlink" x="0px" y="0px"
	 viewBox="0 0 144 82" style="enable-background:new 0 0 144 82;" xml:space="preserve">
<style type="text/css">
	.st0{fill:#DCDDDE;}
	.st1{fill:#CDA349;}
</style>
<g>
	<g>
		<g>
			<g>
				<path class="st0" d="M88.6,49.6l3.1-0.8c6.9-1.8,11.3-7.3,11.3-14c0-3.8-1.4-7.5-3.8-10.2l0.2-0.2c3.2,2.8,5.1,7.1,5.1,11.6
					c0,6.8-4.5,12.4-11.5,14.2L90.2,51L88.6,49.6z"/>
				<path class="st0" d="M99.4,24.5c3.4,3,5.1,7.4,5.1,11.5c0,6.8-4.5,12.3-11.4,14.1l-2.7,0.7l-1.4-1.2l2.9-0.7
					c6.9-1.8,11.4-7.3,11.4-14.1C103.2,31.2,102,27.4,99.4,24.5 M99.5,24.3l-0.4,0.4c2.4,2.7,3.8,6.3,3.8,10.1
					c0,6.7-4.4,12.1-11.2,13.9l-2.9,0.7l-0.5,0.1l0.4,0.3l1.4,1.2l0.1,0.1l0.1,0l2.7-0.7c7.1-1.8,11.6-7.5,11.6-14.4
					C104.7,31.5,102.8,27.2,99.5,24.3L99.5,24.3z"/>
			</g>
			<g>
				<path class="st0" d="M76.1,43.4c-0.9-0.4-1.5-1.4-1.5-2.4V30.2l0-0.1l0.1-0.1c0.8,0.1,1.3,0.7,1.3,1.4v10.8c0,0.3,0.1,0.7,0.2,1
					l0.1,0.3L76.1,43.4z"/>
				<path class="st0" d="M74.7,30.1c0.7,0,1.2,0.6,1.2,1.3v10.8c0,0.4,0.1,0.7,0.2,1c-0.9-0.4-1.5-1.3-1.5-2.3L74.7,30.1
					C74.7,30.2,74.7,30.1,74.7,30.1 M74.4,29.8l0,0.3l0,0l0,0.1l0,10.8c0,1.1,0.6,2,1.6,2.5l0.6,0.3l-0.3-0.6
					c-0.1-0.3-0.2-0.6-0.2-0.9V31.4c0-0.8-0.6-1.5-1.5-1.6L74.4,29.8L74.4,29.8z"/>
			</g>
			<g>
				<path class="st0" d="M43.2,68.1c-1,0-1.8-0.6-2.2-1.5L41,66.3l0.3,0.1c0.3,0.1,0.5,0.2,0.8,0.2h3.7c1.2,0,2.1-0.9,2.1-2.1V52.7
					c0-1.4,1.2-2.6,2.6-2.6l12.2,0c0.7,0,1.2-0.5,1.2-1.2v-4.1l0-0.1l0.1-0.1c0.8,0.1,1.3,0.7,1.3,1.4v4.1c0,0.8-0.6,1.4-1.4,1.4
					l-12.2,0c-1.3,0-2.3,1.1-2.3,2.4v11.8c0,1.3-1.1,2.3-2.3,2.3H43.2z"/>
				<path class="st0" d="M63.9,44.7c0.7,0,1.2,0.6,1.2,1.3v4.1c0,0.7-0.6,1.3-1.3,1.3l-12.2,0c-1.4,0-2.5,1.1-2.5,2.5v11.8
					c0,1.2-1,2.2-2.2,2.2h-3.7c-0.9,0-1.7-0.6-2.1-1.4c0.3,0.1,0.5,0.2,0.8,0.2h3.7c1.2,0,2.2-1,2.2-2.2V52.7c0-1.4,1.1-2.5,2.5-2.5
					l12.2,0c0.7,0,1.3-0.6,1.3-1.3L63.9,44.7C63.9,44.8,63.9,44.8,63.9,44.7 M63.7,44.5l0,0.3l0,0l0,0.1l0,4c0,0.6-0.5,1.1-1.1,1.1
					l-12.2,0c-1.5,0-2.7,1.2-2.7,2.7v11.8c0,1.1-0.9,2-2,2H42c-0.2,0-0.5-0.1-0.7-0.2l-0.5-0.2l0.2,0.5c0.4,0.9,1.3,1.5,2.3,1.5h3.7
					c1.4,0,2.5-1.1,2.5-2.5V53.9c0-1.2,1-2.2,2.2-2.2l12.2,0c0.9,0,1.6-0.7,1.6-1.6V46c0-0.8-0.6-1.5-1.5-1.6L63.7,44.5L63.7,44.5z"
					/>
			</g>
			<g>
				<path class="st0" d="M70,81.3c-1.3,0-1.9-0.4-2.1-1.4l0-0.2l0.2,0c0.2,0,0.5,0.1,0.8,0.1h3.8c1.2,0,2.1-0.9,2.1-2.1l0-24.9
					c0-0.7,0.3-1.4,0.8-1.9c0.5-0.5,1.1-0.8,1.9-0.8c1.1,0,2.2,0.4,3.1,1.2l11.5,10.3c5.5,4.8,9.9,8.2,17.9,9c0.5,0,0.9,0.1,1.3,0.1
					c3.2,0,3.6-1.3,3.8-3.2c0.1-0.8,0-1.5-0.2-2l-0.1-0.3l0.3,0.1c0.4,0.2,0.7,0.4,0.9,0.7c0.5,0.6,0.6,1.4,0.5,2.7
					c-0.2,1.9-0.6,3.4-4,3.4l0,0c-0.4,0-0.8,0-1.3-0.1c-7.4-0.7-12.7-3-18.7-8.3L81.1,53.6l-0.1-0.1c-0.8-0.7-2.1-1.7-3-1.7
					c-1.5,0-1.8,1.2-1.8,2.3l0,24.9c0,1.3-1.1,2.4-2.4,2.4H70z"/>
				<path class="st0" d="M77.3,50.2c1.4,0,2.4,0.7,3,1.2l11.5,10.3c5.5,4.8,10,8.3,18,9c0.5,0,0.9,0.1,1.3,0.1
					c3.3,0,3.7-1.4,3.9-3.3c0.1-0.9,0-1.5-0.2-2c0.4,0.2,0.7,0.4,0.9,0.6h0c0.4,0.5,0.6,1.4,0.5,2.6c-0.2,1.9-0.6,3.3-3.9,3.3
					c-0.4,0-0.8,0-1.3-0.1c-8-0.7-13.2-3.5-18.7-8.3L81.1,53.5c-0.8-0.7-2.2-1.9-3.2-1.9c-1.5,0-2,1.1-2,2.4l0,24.9
					c0,1.2-1,2.2-2.2,2.2H70c-1.2,0-1.8-0.4-2-1.3c0.2,0,0.5,0.1,0.8,0.1h3.8c1.2,0,2.2-1,2.2-2.2l0-24.9c0-0.7,0.3-1.3,0.8-1.8
					C76,50.5,76.6,50.2,77.3,50.2 M77.3,50L77.3,50c-0.7,0-1.4,0.3-1.9,0.8c-0.5,0.5-0.8,1.2-0.8,2l0,24.9c0,1.1-0.9,2-2,2h-3.8
					c-0.3,0-0.5,0-0.7-0.1l-0.4-0.1l0.1,0.4c0.2,1.1,0.9,1.5,2.3,1.5h3.8c1.4,0,2.5-1.1,2.5-2.5l0-24.9c0-1,0.3-2.1,1.7-2.1
					c0.9,0,2.1,1.1,2.9,1.7l0.1,0.1l11.1,10.2c6.1,5.3,11.3,7.7,18.8,8.3c0.5,0,0.9,0.1,1.3,0.1c3.5,0,4-1.6,4.1-3.5
					c0.1-1.3-0.1-2.2-0.5-2.8l-0.1-0.1h0c-0.2-0.2-0.5-0.4-0.9-0.6l-0.6-0.3l0.2,0.6c0.2,0.5,0.2,1.1,0.2,1.9
					c-0.2,1.8-0.5,3.1-3.6,3.1c-0.4,0-0.8,0-1.3-0.1c-7.9-0.7-12.4-4.2-17.8-8.9L80.4,51.2C79.5,50.4,78.4,50,77.3,50L77.3,50
					L77.3,50z"/>
			</g>
			<g>
				<path class="st0" d="M49.3,43.4c-0.9-0.4-1.5-1.4-1.5-2.4V28.7c0-1.4,1.2-2.6,2.6-2.6h35.9c4,0,6.2,1.8,7.4,3.2l0.7,0.9
					l-0.9-0.7c-1.6-1.3-3.6-2-6-2H51.6c-1.3,0-2.4,1.1-2.4,2.4v12.3c0,0.3,0.1,0.7,0.2,1l0.1,0.3L49.3,43.4z"/>
				<path class="st0" d="M86.3,26.2c3.4,0,5.8,1.3,7.3,3.2c-1.5-1.2-3.5-2-6.1-2H51.6c-1.4,0-2.5,1.1-2.5,2.5v12.3
					c0,0.4,0.1,0.7,0.2,1c-0.9-0.4-1.5-1.3-1.5-2.3V28.7c0-1.4,1.1-2.5,2.5-2.5H86.3 M86.3,25.9H50.4c-1.5,0-2.8,1.2-2.8,2.7V41
					c0,1.1,0.6,2,1.6,2.5l0.6,0.3l-0.3-0.6c-0.1-0.3-0.2-0.6-0.2-0.9V29.9c0-1.2,1-2.2,2.3-2.2h35.9c2.4,0,4.3,0.6,5.9,1.9l1.8,1.4
					l-1.4-1.8C92.6,27.7,90.3,25.9,86.3,25.9L86.3,25.9z"/>
			</g>
		</g>
		<g>
			<g>
				<path class="st0" d="M66.4,9.2C66,9.1,65.7,9,65.4,9H29.9c-1,0-1.8-0.6-2.2-1.5l-0.1-0.3l0.3,0.1c0.3,0.1,0.5,0.2,0.8,0.2h35.4
					c1,0,2,0.6,2.4,1.5l0.1,0.3L66.4,9.2z"/>
				<path class="st0" d="M27.9,7.5c0.3,0.1,0.5,0.2,0.8,0.2h35.4c1,0,1.9,0.6,2.3,1.5c-0.3-0.2-0.7-0.2-1.1-0.2H29.9
					C29,8.9,28.2,8.3,27.9,7.5 M27.4,7l0.2,0.6c0.4,0.9,1.3,1.5,2.3,1.5h35.4c0.3,0,0.6,0.1,0.9,0.2l0.6,0.3L66.6,9
					c-0.5-1-1.4-1.6-2.5-1.6H28.7c-0.2,0-0.5-0.1-0.7-0.2L27.4,7L27.4,7z"/>
			</g>
			<g>
				<path class="st0" d="M69.2,18.1c-0.7,0-1.4-0.6-1.4-1.3l0-0.1l0.1,0l5.5,0c0.7,0,1.2-0.5,1.2-1.2l0-5.2c0-1.4,1.2-2.6,2.6-2.6
					h35.5c1.4,0,2-0.6,2-2.1V1.8c0-0.3,0-0.6-0.1-0.9l0-0.2l0.2,0c1,0.2,1.4,0.9,1.4,2.3v3.6c0,1.7-0.6,2.4-2.2,2.4H78.5
					c-1.3,0-2.4,1.1-2.4,2.4l0,5.2c0,0.8-0.6,1.4-1.4,1.4H69.2z"/>
				<path class="st0" d="M114.8,0.9c0.9,0.2,1.3,0.8,1.3,2.1v3.6c0,1.6-0.6,2.2-2.1,2.2H78.5c-1.4,0-2.5,1.1-2.5,2.5l0,5.2
					c0,0.7-0.6,1.3-1.3,1.3h-5.4c-0.7,0-1.3-0.5-1.3-1.2c0,0,0.1,0,0.1,0h5.4c0.7,0,1.3-0.6,1.3-1.3l0-5.2c0-1.4,1.1-2.5,2.5-2.5
					h35.5c1.5,0,2.1-0.6,2.1-2.2V1.8C114.9,1.4,114.9,1.1,114.8,0.9 M114.5,0.6l0.1,0.4c0.1,0.3,0.1,0.6,0.1,0.9v3.6
					c0,1.5-0.5,2-1.8,2H77.3c-1.5,0-2.8,1.2-2.8,2.7l0,5.2c0,0.6-0.5,1.1-1.1,1.1H68c0,0,0,0-0.1,0l-0.3,0l0,0.3
					c0.1,0.8,0.7,1.5,1.6,1.5h5.4c0.9,0,1.6-0.7,1.6-1.6l0-5.2c0-1.2,1-2.2,2.3-2.2H114c1.6,0,2.3-0.7,2.3-2.5V3
					c0-1.4-0.5-2.2-1.5-2.4L114.5,0.6L114.5,0.6z"/>
			</g>
		</g>
	</g>
</g>
<g>
	<g>
		<path class="st1" d="M46.4,48.9c0.1-0.3,0.3-0.5,0.7-0.4l2.5,0.8c2.7,0.8,4,3,3.1,5.8c-0.9,2.8-3.1,3.8-5.8,3l-2.5-0.8
			c-0.3-0.1-0.5-0.3-0.3-0.7L46.4,48.9z M47.1,56.7c1.8,0.6,3.2-0.1,3.9-2.1c0.6-2-0.2-3.4-2-3.9l-1.3-0.4l-1.9,6L47.1,56.7z"/>
		<path class="st1" d="M56.9,51.8c0.1-0.3,0.3-0.5,0.6-0.4l4.4,0.8c0.3,0.1,0.5,0.3,0.4,0.6l-0.1,0.4c-0.1,0.3-0.3,0.5-0.6,0.4
			L58.4,53L58,55.4l2.5,0.4c0.3,0.1,0.5,0.3,0.4,0.6l-0.1,0.4c-0.1,0.4-0.3,0.5-0.6,0.4l-2.5-0.4l-0.4,2.4l3.5,0.6
			c0.3,0.1,0.5,0.3,0.4,0.6l-0.1,0.4c-0.1,0.4-0.3,0.5-0.6,0.4L56,60.4c-0.3-0.1-0.5-0.3-0.4-0.6L56.9,51.8z"/>
		<path class="st1" d="M64.9,60.2l0.3-0.4c0.2-0.3,0.4-0.3,0.8-0.1c0.3,0.2,0.9,0.7,1.8,0.8c0.9,0,1.4-0.4,1.4-1
			c0.1-1.7-4.2-1.6-4-4.5c0.1-1.6,1.5-2.6,3.2-2.5c1.1,0.1,2,0.5,2.3,0.8c0.3,0.2,0.3,0.5,0.1,0.7l-0.3,0.4
			c-0.2,0.4-0.5,0.3-0.7,0.1c-0.4-0.2-0.9-0.6-1.6-0.6c-0.9,0-1.4,0.3-1.5,1c-0.1,1.7,4.2,1.5,4,4.4c-0.1,1.5-1.3,2.7-3.2,2.5
			c-1.3-0.1-2.3-0.7-2.8-1.1C64.7,60.8,64.6,60.6,64.9,60.2z"/>
		<path class="st1" d="M74.4,53.3c0-0.3,0.2-0.6,0.5-0.6l0.6,0c0.3,0,0.5,0.2,0.6,0.5l0.4,8.1c0,0.4-0.2,0.6-0.5,0.6l-0.6,0
			c-0.3,0-0.5-0.2-0.6-0.5L74.4,53.3z"/>
		<path class="st1" d="M83.8,51.7c1.5-0.2,2.7,0.2,3.1,0.4c0.3,0.2,0.4,0.4,0.2,0.7L87,53.2c-0.1,0.3-0.4,0.4-0.7,0.3
			c-0.4-0.2-1.1-0.4-2.1-0.2c-2,0.3-2.9,1.9-2.6,3.6c0.3,1.9,1.9,3,3.5,2.7c1.5-0.2,2.1-1.4,2.1-1.4l-0.2-1l-0.9,0.1
			c-0.3,0.1-0.6-0.1-0.6-0.5l-0.1-0.3c-0.1-0.4,0.1-0.6,0.5-0.6l1.8-0.3c0.3-0.1,0.6,0.1,0.6,0.5l0.6,3.7c0.1,0.4-0.1,0.6-0.4,0.6
			l-0.3,0.1c-0.3,0.1-0.6-0.1-0.6-0.4l0-0.2c0-0.1,0-0.2,0-0.2l0,0c0,0-0.7,1.2-2.5,1.4c-2.4,0.4-4.8-1.2-5.2-3.9
			C79.5,54.5,81.1,52.1,83.8,51.7z"/>
		<path class="st1" d="M90.9,51c-0.1-0.3,0-0.6,0.3-0.7l0.7-0.2c0.3-0.1,0.5-0.1,0.7,0.2l4.6,3.7c0.5,0.4,1.2,1.1,1.2,1.1l0,0
			c0,0-0.4-0.8-0.5-1.3l-1.4-4.5c-0.1-0.3,0-0.6,0.4-0.7l0.6-0.2c0.3-0.1,0.6,0,0.7,0.4l2.4,7.7c0.1,0.3,0,0.6-0.4,0.7l-0.7,0.2
			c-0.3,0.1-0.5,0-0.7-0.2l-4.6-3.7c-0.5-0.4-1.2-1.1-1.2-1.1l0,0c0,0,0.4,0.8,0.5,1.3l1.4,4.5c0.1,0.3,0,0.6-0.3,0.7L94,59.1
			c-0.3,0.1-0.6,0-0.7-0.4L90.9,51z"/>
	</g>
	<g>
		<path class="st1" d="M6.3,28.3l-4.2,0.4c-0.6,0.1-1-0.2-1-0.8L1,27.3c-0.1-0.6,0.2-1,0.8-1L13,25.2c0.6-0.1,0.9,0.2,1,0.8l0.1,0.6
			c0.1,0.6-0.2,0.9-0.8,1L9.1,28l1.3,12.2c0.1,0.6-0.2,1-0.8,1l-1,0.1c-0.6,0.1-0.9-0.2-1-0.8L6.3,28.3z"/>
		<path class="st1" d="M17.3,25.7c0-0.6,0.2-0.9,0.8-1l4.2-0.3c1.5-0.1,2.3-0.1,3,0.2c1.6,0.5,2.8,1.9,3,4.1
			c0.2,1.8-0.7,3.7-2.2,4.5l0,0c0,0,0.2,0.2,0.6,0.8l3,4.5c0.4,0.6,0.2,1.1-0.5,1.2l-1.2,0.1c-0.5,0-0.9-0.1-1.1-0.6l-3.2-5
			l-2.7,0.2l0.4,4.9c0.1,0.6-0.2,0.9-0.8,1l-1,0.1c-0.6,0-0.9-0.2-1-0.9L17.3,25.7z M23.2,31.7c1.5-0.1,2.4-1.1,2.3-2.7
			c-0.1-1-0.5-1.8-1.4-2c-0.4-0.1-0.9-0.2-1.7-0.1L20.2,27l0.4,4.9L23.2,31.7z"/>
		<path class="st1" d="M32.4,24.5c0-0.6,0.3-0.9,0.8-1l7.5-0.5c0.6,0,0.9,0.3,1,0.9l0,0.6c0,0.6-0.3,0.9-0.9,1l-5.6,0.3l0.3,4.1
			l4.4-0.3c0.6,0,0.9,0.3,1,0.8l0,0.6c0,0.6-0.3,0.9-0.9,1l-4.4,0.3l0.3,4.2l6-0.4c0.6,0,0.9,0.3,1,0.8l0,0.6c0,0.6-0.3,0.9-0.9,1
			l-7.9,0.5c-0.6,0-0.9-0.3-1-0.9L32.4,24.5z"/>
		<path class="st1" d="M44.5,23.9c-0.2-0.6,0-1.1,0.7-1.1l1.2,0c0.5,0,0.9,0.2,1.1,0.7l3.6,9.3c0.3,0.9,0.7,2.3,0.7,2.3l0,0
			c0,0,0.2-1.4,0.5-2.3l2.9-9.6c0.1-0.5,0.5-0.8,1-0.8l1.1,0c0.7,0,1,0.4,0.8,1l-4.5,14.1c-0.2,0.5-0.5,0.7-1,0.8l-1.4,0.1
			c-0.5,0-0.9-0.2-1.1-0.7L44.5,23.9z"/>
		<path class="st1" d="M68.6,21.9c4.7,0,8.1,3.5,8.2,7.9c0,4.6-3.3,8.2-8,8.3c-4.7,0-8.1-3.5-8.2-8.2C60.5,25.5,63.8,22,68.6,21.9z
			 M68.7,35.5c3,0,5.2-2.5,5.1-5.6c0-3-2.2-5.4-5.2-5.4c-3,0-5.2,2.4-5.1,5.4C63.5,33.2,65.7,35.6,68.7,35.5z"/>
		<path class="st1" d="M80.9,23.2c0-0.6,0.3-0.9,0.9-0.9l4.2,0.1c1.5,0,2.3,0.2,3,0.5c1.6,0.7,2.6,2.2,2.5,4.4
			c0,1.9-1.1,3.6-2.7,4.2l0,0c0,0,0.2,0.2,0.5,0.8l2.5,4.8c0.4,0.7,0.1,1.1-0.7,1.1l-1.2,0c-0.5,0-0.8-0.2-1.1-0.7l-2.6-5.3
			l-2.7-0.1l-0.1,4.9c0,0.6-0.3,0.9-0.9,0.9l-1,0c-0.6,0-0.9-0.3-0.9-1L80.9,23.2z M86.1,29.7c1.5,0,2.5-0.9,2.5-2.4
			c0-1-0.3-1.8-1.2-2.2c-0.4-0.2-0.9-0.3-1.7-0.3l-2.1-0.1l-0.1,4.9L86.1,29.7z"/>
		<path class="st1" d="M102.8,24c0-0.6,0.4-0.9,1-0.9l4.2,0.3c1.5,0.1,2.3,0.3,2.9,0.6c1.5,0.8,2.5,2.3,2.4,4.4
			c-0.1,1.9-1.2,3.6-2.9,4.1l0,0c0,0,0.2,0.3,0.5,0.8l2.3,4.9c0.3,0.7,0,1.1-0.7,1.1l-1.2-0.1c-0.5,0-0.8-0.3-1-0.7l-2.4-5.4
			l-2.7-0.2l-0.3,4.9c0,0.6-0.4,0.9-1,0.9l-1-0.1c-0.6,0-0.9-0.4-0.8-1L102.8,24z M107.8,30.7c1.5,0.1,2.5-0.8,2.6-2.3
			c0.1-1-0.3-1.8-1.1-2.2c-0.4-0.2-0.8-0.3-1.7-0.4l-2.1-0.1l-0.3,4.9L107.8,30.7z"/>
		<path class="st1" d="M121.4,25.1c0.2-0.5,0.6-0.7,1.1-0.7l1.4,0.1c0.5,0,0.9,0.3,1,0.8l3.7,14.2c0.2,0.7-0.2,1.1-0.8,1l-1-0.1
			c-0.5,0-0.9-0.3-1-0.8l-0.8-3.4l-5.5-0.5l-1.4,3.1c-0.2,0.5-0.6,0.7-1.1,0.7l-1-0.1c-0.7-0.1-0.9-0.5-0.7-1.1L121.4,25.1z
			 M124.4,34l-1-4.3c-0.2-0.9-0.4-2.5-0.4-2.5l0,0c0,0-0.5,1.5-0.8,2.4l-1.8,4.1L124.4,34z"/>
		<path class="st1" d="M134.6,34.7l-3.8-8.4c-0.3-0.7,0-1.1,0.7-1l1.2,0.1c0.5,0.1,0.8,0.3,1,0.8l1.7,4.1c0.4,1,0.7,2.2,0.7,2.2l0,0
			c0,0,0.6-1.1,1.2-2l2.5-3.7c0.3-0.4,0.6-0.6,1.1-0.6l1.2,0.1c0.7,0.1,0.9,0.6,0.5,1.2l-5.4,7.5l-0.6,5.6c-0.1,0.6-0.4,0.9-1,0.8
			l-1-0.1c-0.6-0.1-0.9-0.4-0.8-1L134.6,34.7z"/>
	</g>
</g>
</svg>
