<?xml version="1.0" encoding="utf-8"?>
<!-- Generator: Adobe Illustrator 20.1.0, SVG Export Plug-In . SVG Version: 6.00 Build 0)  -->
<svg version="1.1" id="Layer_1" xmlns="http://www.w3.org/2000/svg" xmlns:xlink="http://www.w3.org/1999/xlink" x="0px" y="0px"
	 viewBox="0 0 144 144" style="enable-background:new 0 0 144 144;" xml:space="preserve">
<style type="text/css">
	.st0{display:none;}
	.st1{display:none;fill:#F58821;}
	.st2{display:none;fill:#FFFFFF;}
	.st3{display:none;fill:#1C1C1C;}
	.st4{fill:#1C1C1C;}
</style>
<path class="st0" d="M97.5,128.1c0,8.8-7.8,16-16.6,15.2c-4.2-0.4-8.1-2.5-10.7-5.8c-1.3-1.7-2.3-3.7-2.8-5.8s-0.3-4.3-0.7-6.4
	c-0.8-4.2-3.4-8-7-10.2c-1.8-1.1-3.8-1.9-6-2.2c-2-0.2-3.9-0.1-5.9-0.6c-6.9-1.8-11.4-7.7-11.4-15.1s0-73.7,0-81.1
	c0-9,7-15.5,15.3-15.5C60.2,0.6,67,7.4,67,15.9c0,9.6,0,71.2,0,80c0,4.5,1,8.8,4.3,12.2c2.6,2.7,6.1,4.3,9.9,4.6
	c4.4,0.3,8.2,1.2,11.5,4.3C95.7,119.8,97.5,123.9,97.5,128.1z M92.4,61.8c6.4,0,12.3-4.2,14.4-10.2s0.2-12.8-4.7-16.9
	c-4.9-4.1-12.1-4.6-17.6-1.3s-8.4,9.9-7.1,16.1C78.8,56.6,85.2,61.8,92.4,61.8z"/>
<path class="st0" d="M102.6,112.8v30.6H72v-30.6C72,112.8,102.6,112.8,102.6,112.8z M102.6,31.2H72V0.6H41.4v30.6v30.6v51H72v-51
	h30.6V31.2z"/>
<circle class="st1" cx="72" cy="72" r="72"/>
<path class="st2" d="M92.2,109.7c0,5.9-5.2,10.8-11.2,10.2c-2.8-0.2-5.5-1.7-7.2-3.9c-0.9-1.1-1.5-2.5-1.9-3.9s-0.2-2.9-0.5-4.3
	c-0.5-2.8-2.3-5.4-4.7-6.9c-1.2-0.8-2.6-1.3-4.1-1.5c-1.3-0.1-2.6-0.1-4-0.4c-4.5-1.1-7.6-5.1-7.6-10c0-5,0-49.6,0-54.5
	c0-6,4.7-10.5,10.3-10.5c5.7,0,10.3,4.5,10.3,10.3c0,6.5,0,47.9,0,53.8c0,3,0.7,5.9,2.9,8.2c1.8,1.8,4.1,2.9,6.7,3.1
	c2.9,0.2,5.5,0.8,7.8,2.9C91,104.2,92.2,106.9,92.2,109.7z M88.7,65.1c4.3,0,8.3-2.8,9.7-6.9c1.4-4,0.1-8.6-3.2-11.3
	c-3.3-2.8-8.2-3.1-11.9-0.9c-3.7,2.2-5.6,6.6-4.8,10.8C79.6,61.6,83.9,65.1,88.7,65.1z"/>
<path class="st2" d="M93.4,109.8c0,6.8-5.5,12.2-12.2,12.2S69,116.5,69,109.8c0-6.8-5.5-12.2-12.2-12.2S44.4,92,44.4,85.2v-49
	c0-6.8,5.5-12.2,12.2-12.2s12.2,5.5,12.2,12.2v49c0,6.8,5.5,12.2,12.2,12.2S93.4,103,93.4,109.8z M93.4,48.5
	c-6.8,0-12.2,5.5-12.2,12.2c0,6.8,5.5,12.2,12.2,12.2s12.2-5.5,12.2-12.2S100.1,48.5,93.4,48.5z"/>
<path class="st1" d="M72,0C32.2,0,0,32.2,0,72s32.2,72,72,72s72-32.2,72-72S111.8,0,72,0z M81,120c-2.8-0.2-5.5-1.7-7.2-3.9
	c-0.9-1.1-1.5-2.5-1.9-3.9s-0.2-2.9-0.5-4.3c-0.5-2.8-2.3-5.4-4.7-6.9c-1.2-0.8-2.6-1.3-4.1-1.5c-1.3-0.1-2.6-0.1-4-0.4
	C54.1,97.9,51,93.9,51,89c0-5,0-49.6,0-54.5c0-6,4.7-10.5,10.3-10.5c5.7,0,10.3,4.5,10.3,10.3c0,6.5,0,47.9,0,53.8
	c0,3,0.7,5.9,2.9,8.2c1.8,1.8,4.1,2.9,6.7,3.1c2.9,0.2,5.5,0.8,7.8,2.9c2.1,1.9,3.3,4.6,3.3,7.5C92.2,115.7,86.9,120.5,81,120z
	 M98.4,58.3c-1.4,4.1-5.4,6.9-9.7,6.9c-4.8,0-9.1-3.5-10.1-8.2c-0.8-4.2,1.1-8.6,4.8-10.8c3.7-2.2,8.5-1.9,11.9,0.9
	C98.6,49.6,99.8,54.2,98.4,58.3z"/>
<path class="st3" d="M59.8,22.9c0-0.9-0.7-1.6-1.6-1.6h-52C2.1,21.3,0,19,0,15.1v-6C0,5,2.1,2.9,6.2,2.9h125.6c4,0,6,2.1,6,6.2v6
	c0,4-2.1,6.2-6,6.2h-52c-0.9,0-1.6,0.7-1.6,1.6v10c0,0.9-0.7,1.6-1.6,1.6H61.4c-0.9,0-1.6-0.7-1.6-1.6
	C59.8,32.9,59.8,22.9,59.8,22.9z M83.1,95.6l20.6,18.2c5.4,5,11.1,8.6,18,10.4c0,0,8.2,1.7,15.3,0.2c8.4-1.7,6.8-9.5,6.8-9.5
	c-1.3-5.8-5.9-6.5-12.8-6.2c-11.1,0.5-19.4-10.5-26.7-16.7c11.4-2.9,20.8-12.1,20.8-25.8s-9.5-27.9-29.6-27.9H21.8
	c-3.5,0-6.3,2.8-6.3,6.3v70.6c0,4.1,2.1,6.2,6.2,6.2h6c4.1,0,6.2-2.1,6.2-6.2c0,0,0-18.5,0-19.5s0.6-1.5,1.5-1.5h18.8
	c0.9,0,1.6-0.7,1.6-1.6v-13c0-0.9-0.7-1.6-1.6-1.6H35.6c-0.9,0-1.6-0.7-1.6-1.6V56.1c0-0.9,0.7-1.6,1.6-1.6h59.2
	c8.2,0,12.6,5.5,12.6,11.7S103,78,94.7,78H79.8c-0.9,0-1.6-0.7-1.6-1.6V60c0-0.9-0.7-1.6-1.6-1.6H61.4c-0.9,0-1.6,0.7-1.6,1.6v74.9
	c0,4.1,2.1,6.2,6,6.2H72c4,0,6.2-2.1,6.2-6.2V95.7c0-0.9,0.7-1.5,1.5-1.5C81.6,94.2,83.1,95.6,83.1,95.6z"/>
<g>
	<path class="st4" d="M62.5,23.9V33c0,1.2,1,2.2,2.2,2.2h9.1c1.2,0,2.2-1,2.2-2.2l0-9.1c0-2.3,1.9-4.2,4.2-4.2h52.9
		c2.5,0,3.5-1,3.5-3.7V9.8c0-2.8-0.9-3.7-3.5-3.7H5.2c-2.1,0-3.7,1.7-3.7,3.7V16c0,2.1,1.7,3.7,3.7,3.7h53
		C60.6,19.7,62.5,21.6,62.5,23.9z"/>
	<path class="st4" d="M142.6,115.9L142.6,115.9c-1-1.2-3.1-1.9-6.9-2.2c-12.1-1-22-10.5-27.4-15.6l-0.6-0.6
		c-1.5-1.5-2.8-2.7-4.1-3.8l-3.9-3.3l4.9-1.3c11.7-3,19.2-12.3,19.2-23.7c0-12.4-8.6-25.9-27.5-25.9H21.1c-2.1,0-3.8,1.7-3.8,3.8v72
		c0,2.1,1.7,3.7,3.7,3.7h6.2c2.1,0,3.7-1.7,3.7-3.7V95.4c0-2.3,1.9-4.2,4.1-4.2l20.9,0c1.2,0,2.2-1,2.2-2.2v-6.8
		c0-1.2-1-2.2-2.2-2.2H35.1c-2.3,0-4.2-1.9-4.2-4.2V55c0-2.3,1.9-4.2,4.2-4.2h60.3c10.6,0,15.5,7.5,15.5,14.5
		c0,7-4.8,14.6-15.5,14.6H80.2c-2.3,0-4.2-1.9-4.2-4.2V57.4c0-1.2-1-2.2-2.2-2.2h-9.1c-1.2,0-2.2,1-2.2,2.2l0,76.7
		c0,2.8,0.9,3.7,3.5,3.7h6.3c2.1,0,3.7-1.7,3.7-3.7l0-38.7c0-1.1,0.5-2.2,1.3-3c0.8-0.8,1.8-1.2,3-1.2c2.4,0,4.3,1.4,5,2l19.3,17.4
		c9.2,8.1,16.8,13.9,30.2,15.1c7.5,0.6,8.4-1.9,8.7-5.5C143.7,118.2,143.4,116.8,142.6,115.9z"/>
</g>
</svg>
