<?xml version="1.0" encoding="utf-8"?>
<!-- Generator: Adobe Illustrator 20.1.0, SVG Export Plug-In . SVG Version: 6.00 Build 0)  -->
<svg version="1.1" id="Layer_1" xmlns="http://www.w3.org/2000/svg" xmlns:xlink="http://www.w3.org/1999/xlink" x="0px" y="0px"
	 viewBox="0 0 65 110" style="enable-background:new 0 0 65 110;" xml:space="preserve">
<style type="text/css">
	.st0{fill:none;stroke:#272826;stroke-width:3.1123;stroke-miterlimit:10;}
</style>
<path class="st0" d="M50.2,85.6c0,6.6-5.3,11.9-11.9,11.9s-11.9-5.3-11.9-11.9s-5.3-11.9-11.9-11.9S2.6,68.4,2.6,61.8V14.3
	c0-6.6,5.3-11.9,11.9-11.9s11.9,5.3,11.9,11.9v47.5c0,6.6,5.3,11.9,11.9,11.9S50.2,79.1,50.2,85.6z M50.2,26.2
	c-6.6,0-11.9,5.3-11.9,11.9S43.6,50,50.2,50S62,44.6,62,38.1C62,31.5,56.7,26.2,50.2,26.2z"/>
</svg>
