<?xml version="1.0" encoding="utf-8"?>
<!-- Generator: Adobe Illustrator 20.1.0, SVG Export Plug-In . SVG Version: 6.00 Build 0)  -->
<svg version="1.1" id="Layer_1" xmlns="http://www.w3.org/2000/svg" xmlns:xlink="http://www.w3.org/1999/xlink" x="0px" y="0px"
	 viewBox="0 0 144 144" style="enable-background:new 0 0 144 144;" xml:space="preserve">
<style type="text/css">
	.st0{fill:#272826;}
</style>
<g>
	<path class="st0" d="M78.5,91.7c-6.4,0-11.5-5.1-11.5-11.5V27.1C67,18.8,60.3,12,51.9,12s-15.1,6.8-15.1,15.1v53.2
		c0,8.3,6.7,15.1,15.1,15.1c6.4,0,11.5,5.1,11.5,11.5c0,8.3,6.7,15.1,15.1,15.1s15.1-6.7,15.1-15.1C93.6,98.6,86.8,91.7,78.5,91.7z"
		/>
	<path class="st0" d="M91.8,38.6c-8.3,0-15.1,6.7-15.1,15.1s6.7,15.1,15.1,15.1c8.3,0,15-6.7,15-15.1S100.1,38.6,91.8,38.6z"/>
</g>
</svg>
